<?xml version="1.0" standalone="no"?><!DOCTYPE svg PUBLIC "-//W3C//DTD SVG 1.1//EN" "http://www.w3.org/Graphics/SVG/1.1/DTD/svg11.dtd"><svg t="1670212160617" class="icon" viewBox="0 0 1024 1024" version="1.1" xmlns="http://www.w3.org/2000/svg" p-id="1867" width="200" height="200" xmlns:xlink="http://www.w3.org/1999/xlink"><path d="M1003.2 265.6c-11.2-44.8-46.4-78.4-91.2-91.2-80-20.8-400-20.8-400-20.8s-320 0-400 20.8c-44.8 11.2-78.4 46.4-91.2 91.2C0 345.6 0 512 0 512s0 166.4 20.8 246.4c11.2 44.8 46.4 78.4 91.2 91.2 80 20.8 400 20.8 400 20.8s320 0 400-20.8c44.8-11.2 78.4-46.4 91.2-91.2C1024 678.4 1024 512 1024 512s0-166.4-20.8-246.4z m-593.6 400V358.4L675.2 512 409.6 665.6z" p-id="1868" fill="#ffffff"></path></svg>